<svg width="28" height="29" viewBox="0 0 28 29" fill="none" xmlns="http://www.w3.org/2000/svg">
<path d="M17.6731 16.9167H16.7919L16.4796 16.5904C17.5727 15.2129 18.2308 13.4246 18.2308 11.4792C18.2308 7.14125 14.985 3.625 10.9808 3.625C6.97654 3.625 3.73077 7.14125 3.73077 11.4792C3.73077 15.8171 6.97654 19.3333 10.9808 19.3333C12.7765 19.3333 14.4273 18.6204 15.6988 17.4362L16 17.7746V18.7292L21.5769 24.7587L23.2388 22.9583L17.6731 16.9167ZM10.9808 16.9167C8.20347 16.9167 5.96154 14.4879 5.96154 11.4792C5.96154 8.47042 8.20347 6.04167 10.9808 6.04167C13.7581 6.04167 16 8.47042 16 11.4792C16 14.4879 13.7581 16.9167 10.9808 16.9167Z" fill="#D0E2F2"/>
</svg>
