<svg width="106" height="12" viewBox="0 0 106 12" fill="none" xmlns="http://www.w3.org/2000/svg">
<path d="M15.7783 9.39565C14.6293 9.39565 13.711 9.03368 13.0211 8.31218C12.3311 7.59068 11.9886 6.62625 11.9886 5.42375C11.9886 4.20667 12.3336 3.23981 13.0259 2.52317C13.7183 1.80652 14.6511 1.44942 15.8293 1.44942C16.9978 1.44942 17.9307 1.80652 18.6255 2.52317C19.3202 3.23981 19.6652 4.19938 19.6652 5.40674C19.6652 6.64083 19.3178 7.61497 18.6255 8.32676C17.9307 9.03854 16.9808 9.39565 15.7783 9.39565ZM15.7978 8.35105C16.4731 8.35105 17.0075 8.08626 17.4011 7.55667C17.7946 7.02708 17.9914 6.30801 17.9914 5.40188C17.9914 4.52248 17.7946 3.81555 17.3987 3.28354C17.0027 2.75152 16.4804 2.48673 15.8293 2.48673C15.171 2.48673 14.6463 2.75152 14.2527 3.28354C13.8592 3.81555 13.6624 4.52734 13.6624 5.41646C13.6624 6.29829 13.8592 7.01008 14.2503 7.54695C14.6414 8.08383 15.1564 8.35105 15.7978 8.35105ZM21.0815 11.2249V3.58963H22.5949V4.6488C22.9836 3.85685 23.5958 3.4633 24.4315 3.4633C25.1068 3.4633 25.6364 3.71109 26.0251 4.20424C26.4114 4.69982 26.6057 5.38002 26.6057 6.24485C26.6057 7.18499 26.3871 7.93564 25.9522 8.49438C25.5149 9.05312 24.9319 9.33249 24.1983 9.33249C23.6079 9.33249 23.0759 9.1017 22.5974 8.63771V11.2249H21.0815ZM22.5949 7.73887C22.9642 8.14699 23.3553 8.35348 23.7707 8.35348C24.1424 8.35348 24.4388 8.17371 24.6598 7.81418C24.8809 7.45464 24.9926 6.97364 24.9926 6.3736C24.9926 5.22455 24.6234 4.65123 23.8825 4.65123C23.4355 4.65123 23.0055 4.94032 22.5925 5.51606V7.73887H22.5949ZM32.5915 9.01668C31.8724 9.22803 31.1898 9.33492 30.546 9.33492C29.6083 9.33492 28.8698 9.07012 28.3256 8.53811C27.7839 8.00609 27.5118 7.27973 27.5118 6.35903C27.5118 5.48934 27.7596 4.7897 28.2552 4.26011C28.7508 3.73053 29.4067 3.46573 30.2229 3.46573C31.044 3.46573 31.6441 3.72567 32.023 4.24311C32.402 4.76055 32.5915 5.58165 32.5915 6.70399H29.1079C29.2099 7.77531 29.7978 8.30975 30.8716 8.30975C31.3793 8.30975 31.9526 8.19315 32.5891 7.9575V9.01668H32.5915ZM29.086 5.84645H31.1023C31.1023 4.8893 30.7938 4.4083 30.1768 4.4083C29.55 4.4083 29.1856 4.88687 29.086 5.84645ZM34.156 9.20616V3.58963H35.6694V4.6488C36.1626 3.85685 36.8015 3.4633 37.5813 3.4633C38.0817 3.4633 38.4777 3.62121 38.7668 3.93945C39.0559 4.25769 39.2016 4.6901 39.2016 5.23912V9.20859H37.6882V5.61323C37.6882 4.97676 37.4768 4.65609 37.0541 4.65609C36.5731 4.65609 36.1115 4.99619 35.6694 5.67396V9.20859H34.156V9.20616ZM42.0828 9.20616L40.1952 1.63647H41.6844L43.0642 7.17527L44.3687 1.63647H45.683L46.9195 7.14369L48.3722 1.63647H49.4605L47.4758 9.20616H45.9721L44.806 4.01476L43.5841 9.20616H42.0828ZM55.0698 9.01668C54.3507 9.22803 53.6681 9.33492 53.0243 9.33492C52.0866 9.33492 51.3481 9.07012 50.8039 8.53811C50.2622 8.00609 49.9901 7.27973 49.9901 6.35903C49.9901 5.48934 50.2379 4.7897 50.7335 4.26011C51.2291 3.73053 51.885 3.46573 52.6988 3.46573C53.5199 3.46573 54.1199 3.72567 54.4989 4.24311C54.8779 4.76055 55.0674 5.58165 55.0674 6.70399H51.5837C51.6858 7.77531 52.2737 8.30975 53.3474 8.30975C53.8551 8.30975 54.4285 8.19315 55.0649 7.9575V9.01668H55.0698ZM51.5667 5.84645H53.5806C53.5806 4.8893 53.2721 4.4083 52.6551 4.4083C52.0307 4.4083 51.6663 4.88687 51.5667 5.84645ZM59.3867 8.60127C58.8814 9.08956 58.3421 9.33249 57.7663 9.33249C57.2756 9.33249 56.8772 9.18187 56.5687 8.88307C56.2626 8.58183 56.1095 8.19315 56.1095 7.717C56.1095 7.09753 56.3573 6.61896 56.8529 6.28129C57.3485 5.94605 58.0578 5.77843 58.9834 5.77843H59.3867V5.26584C59.3867 4.68281 59.0538 4.3913 58.3882 4.3913C57.7979 4.3913 57.2027 4.55892 56.5978 4.89173V3.84956C57.2829 3.58963 57.9607 3.46088 58.6336 3.46088C60.1033 3.46088 60.8369 4.04634 60.8369 5.21483V7.7C60.8369 8.1397 60.9778 8.36077 61.2621 8.36077C61.3131 8.36077 61.3787 8.35348 61.4613 8.34133L61.4977 9.18916C61.177 9.2839 60.8952 9.33249 60.6499 9.33249C60.0304 9.33249 59.6296 9.08956 59.4522 8.60127H59.3867ZM59.3867 7.78988V6.65054H59.0295C58.0505 6.65054 57.5622 6.95663 57.5622 7.57125C57.5622 7.78017 57.6327 7.95508 57.7736 8.09597C57.9145 8.23687 58.0894 8.30732 58.2983 8.30732C58.653 8.30489 59.015 8.13241 59.3867 7.78988ZM65.6883 9.17458C65.3263 9.28147 65.0421 9.33249 64.8331 9.33249C63.5213 9.33249 62.863 8.71787 62.863 7.49108V4.53463H62.2338V3.58963H62.863V2.64463L64.3764 2.46972V3.58963H65.5789V4.53463H64.3764V7.29188C64.3764 7.9818 64.6582 8.32433 65.2194 8.32433C65.3481 8.32433 65.5036 8.30004 65.6858 8.25388V9.17458H65.6883ZM67.0341 9.20616V1.13118H68.5475V4.6488C69.0431 3.85685 69.6796 3.4633 70.4594 3.4633C70.9598 3.4633 71.3558 3.62121 71.6449 3.93945C71.934 4.25769 72.0797 4.6901 72.0797 5.23912V9.20859H70.5663V5.61323C70.5663 4.97676 70.3549 4.65609 69.9322 4.65609C69.4512 4.65609 68.9897 4.99619 68.5451 5.67396V9.20859H67.0341V9.20616ZM78.4858 9.01668C77.7667 9.22803 77.0841 9.33492 76.4403 9.33492C75.5026 9.33492 74.7641 9.07012 74.2199 8.53811C73.6782 8.00609 73.4061 7.27973 73.4061 6.35903C73.4061 5.48934 73.6539 4.7897 74.1495 4.26011C74.6451 3.73053 75.301 3.46573 76.1148 3.46573C76.9359 3.46573 77.5359 3.72567 77.9149 4.24311C78.2939 4.76055 78.4834 5.58165 78.4834 6.70399H74.9998C75.1018 7.77531 75.6897 8.30975 76.7634 8.30975C77.2711 8.30975 77.8445 8.19315 78.4809 7.9575V9.01668H78.4858ZM74.9827 5.84645H76.9991C76.9991 4.8893 76.6905 4.4083 76.0735 4.4083C75.4443 4.4083 75.0824 4.88687 74.9827 5.84645ZM80.0503 9.20616V3.58963H81.5637V4.6488C81.9548 3.85685 82.5524 3.4633 83.3541 3.4633C83.4489 3.4633 83.5436 3.47302 83.6359 3.49489V4.84557C83.4221 4.76784 83.2205 4.72897 83.0383 4.72897C82.4358 4.72897 81.9451 5.03506 81.5661 5.64481V9.20859H80.0503V9.20616ZM84.8117 9.20616V1.63647H86.8985L88.718 6.95906L90.5958 1.63647H92.4275V9.20616H90.9748V3.49246L89.1285 8.69844H87.8605L86.0506 3.41472V9.20373H84.8117V9.20616ZM97.0699 8.60127C96.5646 9.08956 96.0253 9.33249 95.4496 9.33249C94.9589 9.33249 94.5605 9.18187 94.2519 8.88307C93.9458 8.58183 93.7928 8.19315 93.7928 7.717C93.7928 7.09753 94.0406 6.61896 94.5362 6.28129C95.0317 5.94605 95.7411 5.77843 96.6667 5.77843H97.0699V5.26584C97.0699 4.68281 96.7371 4.3913 96.0715 4.3913C95.4812 4.3913 94.886 4.55892 94.2811 4.89173V3.84956C94.9662 3.58963 95.6439 3.46088 96.3168 3.46088C97.7866 3.46088 98.5202 4.04634 98.5202 5.21483V7.7C98.5202 8.1397 98.6611 8.36077 98.9453 8.36077C98.9964 8.36077 99.062 8.35348 99.1445 8.34133L99.181 9.18916C98.8603 9.2839 98.5785 9.33249 98.3332 9.33249C97.7137 9.33249 97.3129 9.08956 97.1355 8.60127H97.0699ZM97.0699 7.78988V6.65054H96.7128C95.7338 6.65054 95.2455 6.95663 95.2455 7.57125C95.2455 7.78017 95.316 7.95508 95.4569 8.09597C95.5978 8.23687 95.7727 8.30732 95.9816 8.30732C96.3363 8.30489 96.6982 8.13241 97.0699 7.78988ZM100.476 11.2249V3.58963H101.989V4.6488C102.378 3.85685 102.99 3.4633 103.826 3.4633C104.501 3.4633 105.033 3.71109 105.419 4.20424C105.806 4.69982 106 5.38002 106 6.24485C106 7.18499 105.781 7.93564 105.347 8.49438C104.909 9.05312 104.326 9.33249 103.593 9.33249C103.002 9.33249 102.47 9.1017 101.992 8.63771V11.2249H100.476ZM101.989 7.73887C102.359 8.14699 102.75 8.35348 103.165 8.35348C103.537 8.35348 103.833 8.17371 104.054 7.81418C104.275 7.45464 104.387 6.97364 104.387 6.3736C104.387 5.22455 104.018 4.65123 103.277 4.65123C102.83 4.65123 102.4 4.94032 101.987 5.51606V7.73887H101.989Z" fill="#668297"/>
<path d="M0 0.990829H10.2031V11.1939H0V0.990829ZM6.03195 8.63097C5.74286 8.73786 5.42948 8.79617 5.10153 8.79617C4.77357 8.79617 4.46019 8.73786 4.17111 8.63097L5.10153 10.5161L6.03195 8.63097ZM2.65036 7.22927L1.97502 9.22129L3.96704 8.54595C3.38644 8.2763 2.91759 7.80744 2.65036 7.22927ZM7.55269 7.22927C7.28304 7.80987 6.81661 8.2763 6.23601 8.54595L8.22803 9.22129L7.55269 7.22927ZM5.10153 4.05418C3.91846 4.05418 2.96131 4.96759 2.96131 6.09236C2.96131 7.21712 3.91846 8.13054 5.10153 8.13054C6.28217 8.13054 7.24174 7.21712 7.24174 6.09236C7.24174 4.96759 6.28217 4.05418 5.10153 4.05418ZM2.56291 5.16194L0.677774 6.09236L2.56291 7.02278C2.45602 6.73369 2.39772 6.42031 2.39772 6.09236C2.39772 5.76683 2.45602 5.45345 2.56291 5.16194ZM7.64014 5.16194C7.74703 5.45102 7.80534 5.7644 7.80534 6.09236C7.80534 6.42031 7.74703 6.73369 7.64014 7.02278L9.52528 6.09236L7.64014 5.16194ZM1.97259 2.96342L2.64794 4.95545C2.91759 4.37727 3.38401 3.90842 3.96462 3.63877L1.97259 2.96342ZM8.23046 2.96342L6.23844 3.63877C6.81904 3.90842 7.28547 4.37484 7.55512 4.95545L8.23046 2.96342ZM5.10153 1.6686L4.17111 3.55374C4.46019 3.44685 4.77357 3.38855 5.10153 3.38855C5.42948 3.38855 5.74286 3.44685 6.03195 3.55374L5.10153 1.6686Z" fill="#668297"/>
</svg>
