<svg width="12" height="12" viewBox="0 0 12 12" fill="none" xmlns="http://www.w3.org/2000/svg">
<path d="M9.65217 1.56522C8.35748 1.56522 7.30435 2.61861 7.30435 3.91304C7.30435 4.05704 7.42096 4.17391 7.56522 4.17391C7.70948 4.17391 7.82609 4.05704 7.82609 3.91304C7.82609 2.90609 8.64548 2.08696 9.65217 2.08696C10.6589 2.08696 11.4783 2.90609 11.4783 3.91304C11.4783 4.92 10.6589 5.73913 9.65217 5.73913H0.26087C0.11687 5.73913 0 5.856 0 6C0 6.144 0.11687 6.26087 0.26087 6.26087H9.65217C10.9469 6.26087 12 5.20748 12 3.91304C12 2.61861 10.9469 1.56522 9.65217 1.56522Z" fill="#90B4CF"/>
<path d="M4.69565 1.04348C3.6887 1.04348 2.86957 1.86261 2.86957 2.86957C2.86957 3.01357 2.98643 3.13044 3.13043 3.13044C3.27443 3.13044 3.3913 3.01357 3.3913 2.86957C3.3913 2.15035 3.97643 1.56522 4.69565 1.56522C5.41487 1.56522 6 2.15035 6 2.86957C6 3.58878 5.41487 4.17391 4.69565 4.17391H0.26087C0.11687 4.17391 0 4.29078 0 4.43478C0 4.57878 0.11687 4.69565 0.26087 4.69565H4.69565C5.70261 4.69565 6.52174 3.87652 6.52174 2.86957C6.52174 1.86261 5.70261 1.04348 4.69565 1.04348Z" fill="#90B4CF"/>
<path d="M9.13044 7.30436H0.26087C0.11687 7.30436 0 7.42122 0 7.56522C0 7.70922 0.11687 7.82609 0.26087 7.82609H9.13044C9.84965 7.82609 10.4348 8.41122 10.4348 9.13044C10.4348 9.84966 9.84965 10.4348 9.13044 10.4348C8.41122 10.4348 7.82609 9.84966 7.82609 9.13044C7.82609 8.98644 7.70948 8.86957 7.56522 8.86957C7.42096 8.86957 7.30435 8.98644 7.30435 9.13044C7.30435 10.1374 8.12374 10.9565 9.13044 10.9565C10.1371 10.9565 10.9565 10.1374 10.9565 9.13044C10.9565 8.12348 10.1371 7.30436 9.13044 7.30436Z" fill="#90B4CF"/>
</svg>
