<svg width="104" height="67" viewBox="0 0 104 67" fill="none" xmlns="http://www.w3.org/2000/svg"><path fill-rule="evenodd" clip-rule="evenodd" d="M59.548 37.256h35.033c4.965-.54 8.92-4.746 8.92-9.899 0-4.667-3.242-8.713-7.543-9.59C94.78 8.038 86.696.436 76.89.436c-6.895 0-12.94 3.689-16.331 9.283-.084-.002-.167-.025-.252-.025-7.27 0-13.165 6.325-13.165 13.78 0 7.195 5.488 13.24 12.405 13.781z" fill="#2D6CB5"/><path fill-rule="evenodd" clip-rule="evenodd" d="M59.548 37.256h35.033c4.965-.54 8.92-4.746 8.92-9.899 0-4.667-3.242-8.713-7.543-9.59C94.78 8.038 86.696.436 76.89.436c-6.895 0-12.94 3.689-16.331 9.283-.084-.002-.167-.025-.252-.025-7.27 0-13.165 6.325-13.165 13.78 0 7.195 5.488 13.24 12.405 13.781z" fill="url(#a)" fill-opacity=".2"/><path fill-rule="evenodd" clip-rule="evenodd" d="M26.893 52.103h40.102c7.367 0 13.369-6.189 13.369-13.544 0-6.188-4.064-11.36-9.78-13.046-.15-5.515-4.718-9.918-10.343-9.918-1.635 0-3.175.397-4.55 1.063-2.433-5.697-8.143-9.689-14.8-9.689-7.258 0-13.389 4.76-15.373 11.286-8.58 1.023-15.156 8.13-15.156 16.874 0 9.16 7.126 16.974 16.53 16.974z" fill="#fff" filter="url(#b)"/><defs><filter id="b" x=".362" y=".969" width="90.001" height="65.134" filterUnits="userSpaceOnUse" color-interpolation-filters="sRGB"><feFlood flood-opacity="0" result="BackgroundImageFix"/><feColorMatrix in="SourceAlpha" values="0 0 0 0 0 0 0 0 0 0 0 0 0 0 0 0 0 0 127 0"/><feOffset dy="4"/><feGaussianBlur stdDeviation="5"/><feColorMatrix values="0 0 0 0 0 0 0 0 0 0 0 0 0 0 0 0 0 0 0.14 0"/><feBlend in2="BackgroundImageFix" result="effect1_dropShadow"/><feBlend in="SourceGraphic" in2="effect1_dropShadow" result="shape"/></filter><linearGradient id="a" x1="47.143" y1=".436" x2="47.143" y2="37.256" gradientUnits="userSpaceOnUse"><stop stop-opacity=".01"/><stop offset="1" stop-opacity=".5"/></linearGradient></defs></svg>