<svg width="104" height="66" viewBox="0 0 104 66" fill="none" xmlns="http://www.w3.org/2000/svg"><path fill-rule="evenodd" clip-rule="evenodd" d="M94.4 36.997c4.966-.54 8.92-4.746 8.92-9.9 0-4.667-3.242-8.712-7.543-9.59C94.599 7.78 86.515.177 76.71.177c-6.895 0-12.94 3.69-16.331 9.283-.084-.001-.167-.024-.252-.024-7.27 0-13.165 6.325-13.165 13.78 0 7.194 5.488 13.24 12.405 13.781H94.4z" fill="#B8C7D8"/><path fill-rule="evenodd" clip-rule="evenodd" d="M94.4 36.997c4.966-.54 8.92-4.746 8.92-9.9 0-4.667-3.242-8.712-7.543-9.59C94.599 7.78 86.515.177 76.71.177c-6.895 0-12.94 3.69-16.331 9.283-.084-.001-.167-.024-.252-.024-7.27 0-13.165 6.325-13.165 13.78 0 7.194 5.488 13.24 12.405 13.781H94.4z" fill="url(#a)" fill-opacity=".2"/><path fill-rule="evenodd" clip-rule="evenodd" d="M26.712 51.843h40.102c7.367 0 13.369-6.188 13.369-13.543 0-6.189-4.064-11.36-9.78-13.046-.15-5.515-4.718-9.918-10.343-9.918-1.635 0-3.175.397-4.55 1.063-2.433-5.697-8.143-9.69-14.8-9.69-7.258 0-13.389 4.76-15.373 11.287-8.58 1.023-15.156 8.13-15.156 16.874 0 9.16 7.126 16.974 16.53 16.974z" fill="#fff" filter="url(#b)"/><defs><filter id="b" x=".181" y=".71" width="90.001" height="65.134" filterUnits="userSpaceOnUse" color-interpolation-filters="sRGB"><feFlood flood-opacity="0" result="BackgroundImageFix"/><feColorMatrix in="SourceAlpha" values="0 0 0 0 0 0 0 0 0 0 0 0 0 0 0 0 0 0 127 0"/><feOffset dy="4"/><feGaussianBlur stdDeviation="5"/><feColorMatrix values="0 0 0 0 0 0 0 0 0 0 0 0 0 0 0 0 0 0 0.14 0"/><feBlend in2="BackgroundImageFix" result="effect1_dropShadow"/><feBlend in="SourceGraphic" in2="effect1_dropShadow" result="shape"/></filter><linearGradient id="a" x1="46.962" y1=".177" x2="46.962" y2="36.997" gradientUnits="userSpaceOnUse"><stop stop-opacity=".01"/><stop offset="1" stop-opacity=".5"/></linearGradient></defs></svg>