<svg width="70" height="67" viewBox="0 0 70 67" fill="none" xmlns="http://www.w3.org/2000/svg"><path fill-rule="evenodd" clip-rule="evenodd" d="M34.857 58.514l-10.633 7.958-3.929-12.695-13.274.183 4.275-12.583L.449 33.714l10.847-7.664L7.02 13.468l13.274.182L24.225.955l10.632 7.959L45.49.955l3.929 12.695 13.275-.182-4.276 12.582 10.847 7.664-10.847 7.663 4.276 12.583-13.275-.183-3.93 12.695-10.632-7.958z" fill="#FCC02E"/><path fill-rule="evenodd" clip-rule="evenodd" d="M34.857 58.514l-10.633 7.958-3.929-12.695-13.274.183 4.275-12.583L.449 33.714l10.847-7.664L7.02 13.468l13.274.182L24.225.955l10.632 7.959L45.49.955l3.929 12.695 13.275-.182-4.276 12.582 10.847 7.664-10.847 7.663 4.276 12.583-13.275-.183-3.93 12.695-10.632-7.958z" fill="url(#a)" fill-opacity=".3" style="mix-blend-mode:overlay"/><path fill-rule="evenodd" clip-rule="evenodd" d="M34.857 52.717c10.484 0 18.984-8.508 18.984-19.003 0-10.496-8.5-19.004-18.984-19.004-10.484 0-18.984 8.508-18.984 19.004 0 10.495 8.5 19.003 18.984 19.003z" fill="#FEE6AC" filter="url(#b)"/><defs><filter id="b" x="7.873" y="10.71" width="53.967" height="54.008" filterUnits="userSpaceOnUse" color-interpolation-filters="sRGB"><feFlood flood-opacity="0" result="BackgroundImageFix"/><feColorMatrix in="SourceAlpha" values="0 0 0 0 0 0 0 0 0 0 0 0 0 0 0 0 0 0 127 0"/><feOffset dy="4"/><feGaussianBlur stdDeviation="4"/><feColorMatrix values="0 0 0 0 0 0 0 0 0 0 0 0 0 0 0 0 0 0 0.1 0"/><feBlend in2="BackgroundImageFix" result="effect1_dropShadow"/><feBlend in="SourceGraphic" in2="effect1_dropShadow" result="shape"/></filter><linearGradient id="a" x1=".449" y1=".955" x2=".449" y2="66.472" gradientUnits="userSpaceOnUse"><stop stop-color="#fff" stop-opacity=".5"/><stop offset="1" stop-opacity=".5"/></linearGradient></defs></svg>