<svg width="46" height="63" viewBox="0 0 46 63" fill="none" xmlns="http://www.w3.org/2000/svg"><path fill-rule="evenodd" clip-rule="evenodd" d="M.387 59.964a31.653 31.653 0 0 0 13.56 3.03c17.474 0 31.64-14.093 31.64-31.476S31.42.043 13.947.043c-4.852 0-9.45 1.087-13.56 3.03 10.69 5.05 18.08 15.89 18.08 28.445 0 12.556-7.39 23.395-18.08 28.446z" fill="#fff"/><path fill-rule="evenodd" clip-rule="evenodd" d="M.387 59.964a31.653 31.653 0 0 0 13.56 3.03c17.474 0 31.64-14.093 31.64-31.476S31.42.043 13.947.043c-4.852 0-9.45 1.087-13.56 3.03 10.69 5.05 18.08 15.89 18.08 28.445 0 12.556-7.39 23.395-18.08 28.446z" fill="url(#a)" fill-opacity=".3"/><path fill-rule="evenodd" clip-rule="evenodd" d="M.387 59.964a31.653 31.653 0 0 0 13.56 3.03c17.474 0 31.64-14.093 31.64-31.476S31.42.043 13.947.043c-4.852 0-9.45 1.087-13.56 3.03 10.69 5.05 18.08 15.89 18.08 28.445 0 12.556-7.39 23.395-18.08 28.446z" fill="#3F8AE9" fill-opacity=".5" style="mix-blend-mode:color"/><defs><linearGradient id="a" x1=".387" y1=".043" x2=".387" y2="62.993" gradientUnits="userSpaceOnUse"><stop stop-color="#fff" stop-opacity=".5"/><stop offset="1" stop-opacity=".5"/></linearGradient></defs></svg>