<svg width="84" height="69" viewBox="0 0 84 69" fill="none" xmlns="http://www.w3.org/2000/svg"><path fill-rule="evenodd" clip-rule="evenodd" d="M55.111 49.3l-8.799 6.586-3.252-10.507-10.986.151 3.539-10.413-8.977-6.342 8.977-6.342-3.539-10.413 10.986.15 3.252-10.506 8.8 6.587 8.799-6.587 3.251 10.507 10.986-.151-3.538 10.413 8.977 6.342-8.977 6.342 3.538 10.413-10.986-.15-3.251 10.505-8.8-6.586z" fill="#FCC02E"/><path fill-rule="evenodd" clip-rule="evenodd" d="M55.111 49.3l-8.799 6.586-3.252-10.507-10.986.151 3.539-10.413-8.977-6.342 8.977-6.342-3.539-10.413 10.986.15 3.252-10.506 8.8 6.587 8.799-6.587 3.251 10.507 10.986-.151-3.538 10.413 8.977 6.342-8.977 6.342 3.538 10.413-10.986-.15-3.251 10.505-8.8-6.586z" fill="url(#a)" fill-opacity=".3" style="mix-blend-mode:overlay"/><path fill-rule="evenodd" clip-rule="evenodd" d="M55.111 44.215c8.519 0 15.425-6.913 15.425-15.44 0-8.528-6.906-15.44-15.425-15.44-8.518 0-15.424 6.912-15.424 15.44 0 8.528 6.906 15.44 15.424 15.44z" fill="#FEE6AC" filter="url(#b)"/><path fill-rule="evenodd" clip-rule="evenodd" d="M49.153 56.093c5.245 0 9.517-4.398 9.517-9.623 0-4.398-2.893-8.072-6.961-9.27-.108-3.919-3.36-7.047-7.363-7.047-1.164 0-2.26.282-3.24.755-1.731-4.047-5.796-6.884-10.535-6.884-5.167 0-9.53 3.382-10.944 8.019C13.52 32.77 8.84 37.82 8.84 44.033c0 6.508 5.073 12.06 11.767 12.06h28.547z" fill="#fff" filter="url(#c)"/><defs><filter id="b" x="31.687" y="9.334" width="46.848" height="46.881" filterUnits="userSpaceOnUse" color-interpolation-filters="sRGB"><feFlood flood-opacity="0" result="BackgroundImageFix"/><feColorMatrix in="SourceAlpha" values="0 0 0 0 0 0 0 0 0 0 0 0 0 0 0 0 0 0 127 0"/><feOffset dy="4"/><feGaussianBlur stdDeviation="4"/><feColorMatrix values="0 0 0 0 0 0 0 0 0 0 0 0 0 0 0 0 0 0 0.1 0"/><feBlend in2="BackgroundImageFix" result="effect1_dropShadow"/><feBlend in="SourceGraphic" in2="effect1_dropShadow" result="shape"/></filter><filter id="c" x=".839" y="20.024" width="65.832" height="48.069" filterUnits="userSpaceOnUse" color-interpolation-filters="sRGB"><feFlood flood-opacity="0" result="BackgroundImageFix"/><feColorMatrix in="SourceAlpha" values="0 0 0 0 0 0 0 0 0 0 0 0 0 0 0 0 0 0 127 0"/><feOffset dy="4"/><feGaussianBlur stdDeviation="4"/><feColorMatrix values="0 0 0 0 0 0 0 0 0 0 0 0 0 0 0 0 0 0 0.14 0"/><feBlend in2="BackgroundImageFix" result="effect1_dropShadow"/><feBlend in="SourceGraphic" in2="effect1_dropShadow" result="shape"/></filter><linearGradient id="a" x1="26.636" y1=".269" x2="26.636" y2="54.49" gradientUnits="userSpaceOnUse"><stop stop-color="#fff" stop-opacity=".5"/><stop offset="1" stop-opacity=".5"/></linearGradient></defs></svg>