<svg width="77" height="57" viewBox="0 0 77 57" fill="none" xmlns="http://www.w3.org/2000/svg"><path fill-rule="evenodd" clip-rule="evenodd" d="M39.75 49.538a25.684 25.684 0 0 0 11.06 2.486c14.252 0 25.806-11.566 25.806-25.833C76.616 11.923 65.063.357 50.81.357c-3.958 0-7.707.892-11.06 2.486 8.72 4.146 14.747 13.042 14.747 23.348 0 10.305-6.028 19.2-14.746 23.347z" fill="#fff"/><path fill-rule="evenodd" clip-rule="evenodd" d="M39.75 49.538a25.684 25.684 0 0 0 11.06 2.486c14.252 0 25.806-11.566 25.806-25.833C76.616 11.923 65.063.357 50.81.357c-3.958 0-7.707.892-11.06 2.486 8.72 4.146 14.747 13.042 14.747 23.348 0 10.305-6.028 19.2-14.746 23.347z" fill="url(#a)" fill-opacity=".3"/><path fill-rule="evenodd" clip-rule="evenodd" d="M39.75 49.538a25.684 25.684 0 0 0 11.06 2.486c14.252 0 25.806-11.566 25.806-25.833C76.616 11.923 65.063.357 50.81.357c-3.958 0-7.707.892-11.06 2.486 8.72 4.146 14.747 13.042 14.747 23.348 0 10.305-6.028 19.2-14.746 23.347z" fill="#3F8AE9" fill-opacity=".5" style="mix-blend-mode:color"/><path fill-rule="evenodd" clip-rule="evenodd" d="M20.606 44.897h28.547c5.245 0 9.517-4.397 9.517-9.623 0-4.397-2.893-8.072-6.961-9.27-.108-3.918-3.36-7.046-7.363-7.046-1.164 0-2.26.282-3.24.755-1.731-4.048-5.796-6.884-10.535-6.884-5.167 0-9.53 3.381-10.944 8.019-6.107.726-10.788 5.776-10.788 11.989 0 6.509 5.073 12.06 11.767 12.06z" fill="#fff" filter="url(#b)"/><defs><filter id="b" x=".839" y="8.829" width="65.832" height="48.069" filterUnits="userSpaceOnUse" color-interpolation-filters="sRGB"><feFlood flood-opacity="0" result="BackgroundImageFix"/><feColorMatrix in="SourceAlpha" values="0 0 0 0 0 0 0 0 0 0 0 0 0 0 0 0 0 0 127 0"/><feOffset dy="4"/><feGaussianBlur stdDeviation="4"/><feColorMatrix values="0 0 0 0 0 0 0 0 0 0 0 0 0 0 0 0 0 0 0.2 0"/><feBlend in2="BackgroundImageFix" result="effect1_dropShadow"/><feBlend in="SourceGraphic" in2="effect1_dropShadow" result="shape"/></filter><linearGradient id="a" x1="39.751" y1=".357" x2="39.751" y2="52.024" gradientUnits="userSpaceOnUse"><stop stop-color="#fff" stop-opacity=".5"/><stop offset="1" stop-opacity=".5"/></linearGradient></defs></svg>