<svg width="67" height="52" viewBox="0 0 67 52" fill="none" xmlns="http://www.w3.org/2000/svg"><path d="M2.047 5.918C9.494 2.439 18.057.7 26.249 3.135c4.84 1.391 8.936 4.174 13.777 5.565 8.19 2.435 16.755.696 24.202-2.782" stroke="#FBFBFB" stroke-width="4" stroke-linecap="round" stroke-linejoin="round"/><path opacity=".7" d="M2.047 19.122c7.447-3.479 16.01-5.218 24.202-2.783 4.84 1.392 8.936 4.174 13.777 5.565 8.19 2.435 16.755.696 24.202-2.782" stroke="#FBFBFB" stroke-width="4" stroke-linecap="round" stroke-linejoin="round"/><path opacity=".4" d="M2.047 32.326c7.447-3.478 16.01-5.218 24.202-2.783 4.84 1.392 8.936 4.174 13.777 5.566 8.19 2.434 16.755.695 24.202-2.783" stroke="#FBFBFB" stroke-width="4" stroke-linecap="round" stroke-linejoin="round"/><path opacity=".2" d="M2.047 45.53c7.447-3.478 16.01-5.217 24.202-2.782 4.84 1.39 8.936 4.173 13.777 5.565 8.19 2.434 16.755.695 24.202-2.783" stroke="#FBFBFB" stroke-width="4" stroke-linecap="round" stroke-linejoin="round"/></svg>