<svg width="12" height="12" viewBox="0 0 12 12" fill="none" xmlns="http://www.w3.org/2000/svg">
<path d="M6 0C2.69175 0 0 2.69175 0 6C0 9.30825 2.69175 12 6 12C9.30825 12 12 9.30825 12 6C12 2.69175 9.30825 0 6 0ZM6 11.5C3.48724 11.5 1.36425 9.80576 0.709758 7.5H4.26776C4.68427 8.12899 5.32252 8.50001 6 8.50001C6.67751 8.50001 7.31576 8.12902 7.73224 7.5H11.2902C10.6357 9.80576 8.51276 11.5 6 11.5ZM7.59349 7.00001C7.50476 6.99996 7.42263 7.04698 7.37775 7.1235C7.05626 7.67224 6.54124 7.99999 6 7.99999C5.45876 7.99999 4.94374 7.67224 4.62225 7.1235C4.57734 7.04695 4.49524 6.99996 4.40651 7.00001H0.592758C0.531422 6.6702 0.500391 6.33546 0.500016 6C0.499992 2.96726 2.96726 0.499992 6 0.499992C9.03274 0.499992 11.5 2.96726 11.5 6C11.4996 6.33546 11.4686 6.6702 11.4073 7.00001H7.59349Z" fill="#90B4CF"/>
<path d="M7.82322 3.57326L6.33473 5.06175C6.22755 5.02196 6.1143 5.00107 5.99998 4.99999C5.4477 4.99999 4.99997 5.4477 4.99997 6C4.99997 6.55231 5.44767 7.00001 5.99998 7.00001C6.54935 7.0028 6.99698 6.55972 6.99977 6.01034C7.00101 5.76755 6.9134 5.53268 6.75347 5.35001L8.17671 3.92677C8.27263 3.82746 8.26989 3.66919 8.17056 3.57326C8.0737 3.47967 7.92011 3.47967 7.82322 3.57326ZM5.99998 6.5C5.72384 6.5 5.49998 6.27615 5.49998 6C5.49998 5.72386 5.72384 5.50001 5.99998 5.50001C6.27612 5.50001 6.49997 5.72386 6.49997 6C6.49997 6.27615 6.27612 6.5 5.99998 6.5Z" fill="#90B4CF"/>
<path d="M5.99998 2.25C6.13805 2.25 6.24999 2.13806 6.24999 1.99999V1.00001C6.24999 0.861938 6.13805 0.75 5.99998 0.75C5.86191 0.75 5.74997 0.861938 5.74997 1.00001V2.00002C5.74997 2.13806 5.86191 2.25 5.99998 2.25Z" fill="#90B4CF"/>
<path d="M11 5.74999H10C9.86194 5.74999 9.75 5.86193 9.75 6C9.75 6.13807 9.86194 6.25001 10 6.25001H11C11.1381 6.25001 11.25 6.13807 11.25 6C11.25 5.86193 11.1381 5.74999 11 5.74999Z" fill="#90B4CF"/>
<path d="M1.99999 5.74999H1.00001C0.861938 5.74999 0.75 5.86193 0.75 6C0.75 6.13807 0.861938 6.25001 1.00001 6.25001H2.00002C2.13806 6.25001 2.25 6.13807 2.25 6C2.25 5.86193 2.13806 5.74999 1.99999 5.74999Z" fill="#90B4CF"/>
<path d="M4.19324 2.37074L3.76825 1.633C3.69843 1.51389 3.54527 1.47393 3.42616 1.54375C3.30815 1.61291 3.26765 1.76409 3.33527 1.88301L3.76026 2.62075C3.82851 2.74077 3.98114 2.78275 4.10116 2.7145C4.22118 2.64625 4.26316 2.49362 4.19491 2.3736C4.19435 2.37264 4.19381 2.37168 4.19324 2.37074Z" fill="#90B4CF"/>
<path d="M10.461 3.42736C10.3927 3.30734 10.2401 3.26536 10.1201 3.33361C10.1191 3.33415 10.1182 3.33471 10.1172 3.33525L9.37949 3.76024C9.25991 3.82929 9.21896 3.98219 9.28799 4.10175C9.33264 4.17909 9.41516 4.22674 9.50448 4.22674C9.54836 4.22674 9.59148 4.21519 9.62947 4.19325L10.3672 3.76826C10.4873 3.70001 10.5292 3.54738 10.461 3.42736Z" fill="#90B4CF"/>
<path d="M2.62364 3.76118C2.62267 3.76062 2.62171 3.76006 2.62073 3.75952L1.88299 3.33452C1.76388 3.2647 1.61071 3.30466 1.54089 3.42377C1.47107 3.54288 1.51103 3.69605 1.63014 3.76587C1.63108 3.76643 1.63204 3.76697 1.633 3.76751L2.37074 4.1925C2.48985 4.26235 2.64302 4.22238 2.71286 4.10327C2.78268 3.98417 2.74275 3.831 2.62364 3.76118Z" fill="#90B4CF"/>
<path d="M8.57097 1.54236C8.45207 1.47474 8.3009 1.51524 8.23172 1.63325L7.80673 2.37099C7.7377 2.49057 7.77865 2.64345 7.89823 2.7125C8.0178 2.78152 8.17068 2.74057 8.23973 2.621L8.66472 1.88325C8.73297 1.76323 8.691 1.61061 8.57097 1.54236Z" fill="#90B4CF"/>
</svg>
