<svg width="104" height="75" viewBox="0 0 104 75" fill="none" xmlns="http://www.w3.org/2000/svg"><path fill-rule="evenodd" clip-rule="evenodd" d="M59.679 37.778h35.033c4.965-.541 8.919-4.747 8.919-9.9 0-4.667-3.242-8.713-7.543-9.59C94.911 8.56 86.827.957 77.022.957c-6.896 0-12.94 3.69-16.332 9.283-.084-.002-.167-.025-.251-.025-7.272 0-13.166 6.325-13.166 13.78 0 7.195 5.488 13.24 12.406 13.782z" fill="#2D6CB5"/><path fill-rule="evenodd" clip-rule="evenodd" d="M59.679 37.778h35.033c4.965-.541 8.919-4.747 8.919-9.9 0-4.667-3.242-8.713-7.543-9.59C94.911 8.56 86.827.957 77.022.957c-6.896 0-12.94 3.69-16.332 9.283-.084-.002-.167-.025-.251-.025-7.272 0-13.166 6.325-13.166 13.78 0 7.195 5.488 13.24 12.406 13.782z" fill="url(#a)" fill-opacity=".2"/><path fill-rule="evenodd" clip-rule="evenodd" d="M27.023 52.624h40.102c7.368 0 13.369-6.189 13.369-13.544 0-6.188-4.064-11.36-9.78-13.046-.15-5.515-4.718-9.918-10.343-9.918-1.635 0-3.175.397-4.55 1.063-2.433-5.697-8.143-9.689-14.8-9.689-7.258 0-13.389 4.76-15.373 11.286-8.58 1.023-15.155 8.13-15.155 16.874 0 9.16 7.126 16.974 16.53 16.974z" fill="#fff" filter="url(#b)"/><path fill-rule="evenodd" clip-rule="evenodd" d="M36.002 74.222c2.621 0 4.746-2.279 4.746-5.09 0-2.812-4.746-9.163-4.746-9.163s-4.746 6.351-4.746 9.163c0 2.811 2.125 5.09 4.746 5.09zM53.206 65.314c1.31 0 2.373-1.14 2.373-2.545 0-1.406-2.373-4.581-2.373-4.581s-2.373 3.175-2.373 4.58c0 1.406 1.062 2.546 2.373 2.546z" fill="#F3F3F3"/><defs><filter id="b" x=".493" y="1.49" width="90.001" height="65.134" filterUnits="userSpaceOnUse" color-interpolation-filters="sRGB"><feFlood flood-opacity="0" result="BackgroundImageFix"/><feColorMatrix in="SourceAlpha" values="0 0 0 0 0 0 0 0 0 0 0 0 0 0 0 0 0 0 127 0"/><feOffset dy="4"/><feGaussianBlur stdDeviation="5"/><feColorMatrix values="0 0 0 0 0 0 0 0 0 0 0 0 0 0 0 0 0 0 0.14 0"/><feBlend in2="BackgroundImageFix" result="effect1_dropShadow"/><feBlend in="SourceGraphic" in2="effect1_dropShadow" result="shape"/></filter><linearGradient id="a" x1="47.273" y1=".958" x2="47.273" y2="37.778" gradientUnits="userSpaceOnUse"><stop stop-opacity=".01"/><stop offset="1" stop-opacity=".5"/></linearGradient></defs></svg>