<svg width="105" height="75" viewBox="0 0 105 75" fill="none" xmlns="http://www.w3.org/2000/svg"><path fill-rule="evenodd" clip-rule="evenodd" d="M60.172 37.805h35.032c4.966-.541 8.92-4.746 8.92-9.9 0-4.667-3.242-8.713-7.543-9.59C95.403 8.587 87.32.985 77.514.985c-6.895 0-12.94 3.69-16.33 9.283-.085-.002-.168-.025-.252-.025-7.272 0-13.166 6.325-13.166 13.781 0 7.194 5.488 13.24 12.406 13.78z" fill="#B8C7D8"/><path fill-rule="evenodd" clip-rule="evenodd" d="M60.172 37.805h35.032c4.966-.541 8.92-4.746 8.92-9.9 0-4.667-3.242-8.713-7.543-9.59C95.403 8.587 87.32.985 77.514.985c-6.895 0-12.94 3.69-16.33 9.283-.085-.002-.168-.025-.252-.025-7.272 0-13.166 6.325-13.166 13.781 0 7.194 5.488 13.24 12.406 13.78z" fill="url(#a)" fill-opacity=".2"/><path fill-rule="evenodd" clip-rule="evenodd" d="M27.516 52.651h40.102c7.368 0 13.369-6.189 13.369-13.543 0-6.189-4.064-11.361-9.78-13.046-.15-5.516-4.718-9.918-10.343-9.918-1.635 0-3.175.397-4.55 1.062-2.433-5.696-8.143-9.689-14.8-9.689-7.258 0-13.389 4.76-15.373 11.286-8.58 1.023-15.155 8.13-15.155 16.874 0 9.161 7.126 16.974 16.53 16.974z" fill="#fff" filter="url(#b)"/><path fill-rule="evenodd" clip-rule="evenodd" d="M36.495 74.25c2.62 0 4.746-2.28 4.746-5.091 0-2.811-4.746-9.163-4.746-9.163s-4.746 6.352-4.746 9.163 2.125 5.09 4.746 5.09zM53.699 65.341c1.31 0 2.373-1.14 2.373-2.545 0-1.406-2.373-4.581-2.373-4.581s-2.373 3.175-2.373 4.581c0 1.406 1.062 2.545 2.373 2.545z" fill="#F3F3F3"/><defs><filter id="b" x=".986" y="1.517" width="90.001" height="65.134" filterUnits="userSpaceOnUse" color-interpolation-filters="sRGB"><feFlood flood-opacity="0" result="BackgroundImageFix"/><feColorMatrix in="SourceAlpha" values="0 0 0 0 0 0 0 0 0 0 0 0 0 0 0 0 0 0 127 0"/><feOffset dy="4"/><feGaussianBlur stdDeviation="5"/><feColorMatrix values="0 0 0 0 0 0 0 0 0 0 0 0 0 0 0 0 0 0 0.14 0"/><feBlend in2="BackgroundImageFix" result="effect1_dropShadow"/><feBlend in="SourceGraphic" in2="effect1_dropShadow" result="shape"/></filter><linearGradient id="a" x1="47.766" y1=".985" x2="47.766" y2="37.805" gradientUnits="userSpaceOnUse"><stop stop-opacity=".01"/><stop offset="1" stop-opacity=".5"/></linearGradient></defs></svg>