<svg width="104" height="93" viewBox="0 0 104 93" fill="none" xmlns="http://www.w3.org/2000/svg"><path fill-rule="evenodd" clip-rule="evenodd" d="M59.186 37.244h35.033c4.965-.54 8.919-4.746 8.919-9.9 0-4.666-3.242-8.712-7.543-9.59C94.418 8.027 86.335.424 76.53.424c-6.896 0-12.94 3.69-16.331 9.284-.084-.002-.168-.025-.252-.025-7.271 0-13.165 6.325-13.165 13.78 0 7.194 5.488 13.24 12.405 13.781z" fill="#2D6CB5"/><path fill-rule="evenodd" clip-rule="evenodd" d="M59.186 37.244h35.033c4.965-.54 8.919-4.746 8.919-9.9 0-4.666-3.242-8.712-7.543-9.59C94.418 8.027 86.335.424 76.53.424c-6.896 0-12.94 3.69-16.331 9.284-.084-.002-.168-.025-.252-.025-7.271 0-13.165 6.325-13.165 13.78 0 7.194 5.488 13.24 12.405 13.781z" fill="url(#a)" fill-opacity=".2"/><path fill-rule="evenodd" clip-rule="evenodd" d="M26.53 52.09h40.102c7.368 0 13.37-6.188 13.37-13.543 0-6.189-4.064-11.36-9.78-13.046-.151-5.515-4.718-9.918-10.343-9.918-1.635 0-3.176.397-4.551 1.063-2.433-5.697-8.142-9.69-14.799-9.69-7.259 0-13.39 4.76-15.374 11.287C16.575 19.266 10 26.373 10 35.117c0 9.16 7.126 16.974 16.53 16.974z" fill="#fff" filter="url(#b)"/><path fill-rule="evenodd" clip-rule="evenodd" d="M84.748 60.405c2.621 0 4.746-2.279 4.746-5.09s-4.746-9.163-4.746-9.163-4.746 6.352-4.746 9.163 2.125 5.09 4.746 5.09zM23.645 80.597c2.62 0 4.745-2.28 4.745-5.09 0-2.812-4.745-9.163-4.745-9.163s-4.746 6.351-4.746 9.162c0 2.812 2.124 5.09 4.745 5.09zM48.56 64.78c1.311 0 2.373-1.139 2.373-2.544 0-1.406-2.373-4.582-2.373-4.582s-2.373 3.176-2.373 4.581c0 1.406 1.063 2.546 2.373 2.546z" fill="#F5F5F5"/><path fill-rule="evenodd" clip-rule="evenodd" d="M90.087 92.099c1.31 0 2.373-1.14 2.373-2.546 0-1.405-2.373-4.58-2.373-4.58s-2.373 3.175-2.373 4.58c0 1.406 1.063 2.546 2.373 2.546z" fill="#F1F1F1"/><defs><filter id="b" x="0" y=".957" width="90.001" height="65.134" filterUnits="userSpaceOnUse" color-interpolation-filters="sRGB"><feFlood flood-opacity="0" result="BackgroundImageFix"/><feColorMatrix in="SourceAlpha" values="0 0 0 0 0 0 0 0 0 0 0 0 0 0 0 0 0 0 127 0"/><feOffset dy="4"/><feGaussianBlur stdDeviation="5"/><feColorMatrix values="0 0 0 0 0 0 0 0 0 0 0 0 0 0 0 0 0 0 0.14 0"/><feBlend in2="BackgroundImageFix" result="effect1_dropShadow"/><feBlend in="SourceGraphic" in2="effect1_dropShadow" result="shape"/></filter><linearGradient id="a" x1="46.781" y1=".424" x2="46.781" y2="37.244" gradientUnits="userSpaceOnUse"><stop stop-opacity=".01"/><stop offset="1" stop-opacity=".5"/></linearGradient></defs></svg>