<svg width="104" height="91" viewBox="0 0 104 91" fill="none" xmlns="http://www.w3.org/2000/svg"><path fill-rule="evenodd" clip-rule="evenodd" d="M59.505 37.741h35.033c4.965-.54 8.919-4.746 8.919-9.9 0-4.666-3.242-8.712-7.543-9.59C94.737 8.524 86.653.92 76.848.92c-6.896 0-12.94 3.69-16.332 9.284-.084-.002-.167-.025-.251-.025-7.271 0-13.165 6.325-13.165 13.78 0 7.194 5.487 13.24 12.405 13.781z" fill="#2D6CB5"/><path fill-rule="evenodd" clip-rule="evenodd" d="M59.505 37.741h35.033c4.965-.54 8.919-4.746 8.919-9.9 0-4.666-3.242-8.712-7.543-9.59C94.737 8.524 86.653.92 76.848.92c-6.896 0-12.94 3.69-16.332 9.284-.084-.002-.167-.025-.251-.025-7.271 0-13.165 6.325-13.165 13.78 0 7.194 5.487 13.24 12.405 13.781z" fill="url(#a)" fill-opacity=".2"/><path fill-rule="evenodd" clip-rule="evenodd" d="M26.85 52.588H66.95c7.368 0 13.37-6.19 13.37-13.544 0-6.189-4.065-11.36-9.78-13.046-.151-5.515-4.718-9.918-10.344-9.918-1.635 0-3.175.397-4.55 1.063-2.433-5.697-8.142-9.69-14.8-9.69-7.258 0-13.388 4.76-15.373 11.287-8.58 1.023-15.155 8.13-15.155 16.874 0 9.16 7.126 16.974 16.53 16.974z" fill="#fff" filter="url(#b)"/><path fill-rule="evenodd" clip-rule="evenodd" d="M84.819 60.921a4.5 4.5 0 1 0 0-9 4.5 4.5 0 0 0 0 9zM23.819 81.921a4.5 4.5 0 1 0 0-9 4.5 4.5 0 0 0 0 9zM89.819 90.921a2.5 2.5 0 1 0 0-5 2.5 2.5 0 0 0 0 5zM48.819 63.921a2.5 2.5 0 1 0 0-5 2.5 2.5 0 0 0 0 5z" fill="#fff"/><defs><filter id="b" x=".319" y="1.454" width="90.001" height="65.134" filterUnits="userSpaceOnUse" color-interpolation-filters="sRGB"><feFlood flood-opacity="0" result="BackgroundImageFix"/><feColorMatrix in="SourceAlpha" values="0 0 0 0 0 0 0 0 0 0 0 0 0 0 0 0 0 0 127 0"/><feOffset dy="4"/><feGaussianBlur stdDeviation="5"/><feColorMatrix values="0 0 0 0 0 0 0 0 0 0 0 0 0 0 0 0 0 0 0.14 0"/><feBlend in2="BackgroundImageFix" result="effect1_dropShadow"/><feBlend in="SourceGraphic" in2="effect1_dropShadow" result="shape"/></filter><linearGradient id="a" x1="47.1" y1=".921" x2="47.1" y2="37.741" gradientUnits="userSpaceOnUse"><stop stop-opacity=".01"/><stop offset="1" stop-opacity=".5"/></linearGradient></defs></svg>