<svg width="104" height="67" viewBox="0 0 104 67" fill="none" xmlns="http://www.w3.org/2000/svg"><path fill-rule="evenodd" clip-rule="evenodd" d="M94.393 37.26c4.965-.541 8.919-4.747 8.919-9.9 0-4.667-3.242-8.713-7.543-9.59C94.592 8.041 86.508.44 76.703.44c-6.896 0-12.94 3.689-16.332 9.283-.083-.002-.167-.025-.251-.025-7.271 0-13.165 6.325-13.165 13.78 0 7.195 5.488 13.24 12.405 13.781h35.033z" fill="#B8C7D8"/><path fill-rule="evenodd" clip-rule="evenodd" d="M94.393 37.26c4.965-.541 8.919-4.747 8.919-9.9 0-4.667-3.242-8.713-7.543-9.59C94.592 8.041 86.508.44 76.703.44c-6.896 0-12.94 3.689-16.332 9.283-.083-.002-.167-.025-.251-.025-7.271 0-13.165 6.325-13.165 13.78 0 7.195 5.488 13.24 12.405 13.781h35.033z" fill="url(#a)" fill-opacity=".2"/><path fill-rule="evenodd" clip-rule="evenodd" d="M26.704 52.106h40.102c7.368 0 13.37-6.189 13.37-13.544 0-6.188-4.065-11.36-9.78-13.046-.151-5.515-4.718-9.918-10.344-9.918-1.634 0-3.175.397-4.55 1.063-2.433-5.697-8.142-9.689-14.8-9.689-7.258 0-13.388 4.76-15.373 11.286-8.58 1.023-15.155 8.13-15.155 16.874 0 9.16 7.126 16.974 16.53 16.974z" fill="#fff" filter="url(#b)"/><path fill-rule="evenodd" clip-rule="evenodd" d="M41.763 34.884L36.87 48.756h7.644L39.73 62.202l14.938-19.117-8.233-.183 2.867-7.834-7.538-.184z" fill="#FCC02E"/><defs><filter id="b" x=".174" y=".972" width="90.001" height="65.134" filterUnits="userSpaceOnUse" color-interpolation-filters="sRGB"><feFlood flood-opacity="0" result="BackgroundImageFix"/><feColorMatrix in="SourceAlpha" values="0 0 0 0 0 0 0 0 0 0 0 0 0 0 0 0 0 0 127 0"/><feOffset dy="4"/><feGaussianBlur stdDeviation="5"/><feColorMatrix values="0 0 0 0 0 0 0 0 0 0 0 0 0 0 0 0 0 0 0.14 0"/><feBlend in2="BackgroundImageFix" result="effect1_dropShadow"/><feBlend in="SourceGraphic" in2="effect1_dropShadow" result="shape"/></filter><linearGradient id="a" x1="46.955" y1=".439" x2="46.955" y2="37.259" gradientUnits="userSpaceOnUse"><stop stop-opacity=".01"/><stop offset="1" stop-opacity=".5"/></linearGradient></defs></svg>